<?xml version="1.0" encoding="UTF-8" standalone="no"?>
<svg width="209px" height="74px" viewBox="0 0 209 74" version="1.1" xmlns="http://www.w3.org/2000/svg" xmlns:xlink="http://www.w3.org/1999/xlink">
    <!-- Generator: Sketch 41.2 (35397) - http://www.bohemiancoding.com/sketch -->
    <title>INS_Logo_rgb</title>
    <desc>Created with Sketch.</desc>
    <defs></defs>
    <g id="1.1-Vehicle-Details" stroke="none" stroke-width="1" fill="none" fill-rule="evenodd">
        <g id="Desktop-HD" transform="translate(-129.000000, -84.000000)">
            <g id="Header">
                <g id="INS_Logo_rgb" transform="translate(129.000000, 84.000000)">
                    <g id="One_line_x2C__cmyk_x2C__positive">
                        <g id="Layer_2_4_">
                            <g id="Group">
                                <path d="M56.1529412,64.6411765 C56.1529412,67.0352941 55.0647059,68.5588235 53.3235294,69.2117647 C45.9235294,72.0411765 37,73.5647059 28.5117647,73.5647059 C20.0235294,73.5647059 11.1,72.0411765 3.7,69.2117647 C1.74117647,68.5588235 0.870588235,67.0352941 0.870588235,64.6411765 L0.870588235,0.652941176 L56.3705882,0.652941176 L56.3705882,64.6411765 L56.1529412,64.6411765 Z" id="Shape" fill="#005AB4"></path>
                                <g transform="translate(3.176471, 3.176471)" id="Shape">
                                    <g fill="#FEDF01">
                                        <path d="M12.4941176,36.4352941 C4.87647059,31.6470588 2.26470588,29.4705882 2.04705882,26.4235294 C2.04705882,25.7705882 2.04705882,24.6823529 2.48235294,24.0294118 L1.82941176,23.5941176 C1.17647059,24.4647059 0.958823529,25.7705882 0.958823529,26.8588235 C0.958823529,28.6 1.61176471,30.1235294 2.26470588,31.2117647 C3.35294118,32.9529412 4.44117647,33.8235294 7.27058824,36 C10.3176471,38.1764706 12.2764706,41.0058824 13.5823529,43.6176471 L14.0176471,43.6176471 L14.0176471,40.3529412 C18.1529412,42.7470588 21.6352941,44.9235294 23.3764706,48.6235294 L23.8117647,48.6235294 C22.9411765,44.7058824 20.5470588,41.6588235 12.4941176,36.4352941 Z"></path>
                                        <path d="M47.7529412,48.8411765 L47.3176471,48.8411765 C47.3176471,46.0117647 44.7058824,45.1411765 41.8764706,45.1411765 L33.1705882,45.1411765 C33.3882353,46.4470588 33.6058824,48.1882353 33.3882353,49.7117647 L32.9529412,49.7117647 C32.0823529,43.1823529 28.6,40.1352941 23.3764706,36.6529412 L23.3764706,39.4823529 L22.9411765,39.4823529 C21.6352941,36.4352941 18.5882353,33.6058824 15.7588235,31.6470588 L15.7588235,31.6470588 C15.1058824,31.2117647 14.2352941,30.5588235 13.3647059,29.9058824 L13.3647059,33.1705882 L12.9294118,33.1705882 C11.8411765,30.1235294 9.66470588,27.7294118 6.4,24.9 C3.13529412,21.8529412 1.82941176,20.1117647 0.958823529,17.9352941 C0.523529412,16.6294118 0.305882353,15.7588235 0.305882353,14.2352941 C0.305882353,11.8411765 1.61176471,9.66470588 3.13529412,8.79411765 L3.13529412,9.88235294 C2.26470588,10.9705882 2.04705882,12.2764706 2.04705882,13.5823529 C2.04705882,14.8882353 2.26470588,16.1941176 2.91764706,17.2823529 C4.87647059,20.7647059 11.1882353,25.3352941 15.1058824,27.9470588 C27.5117647,36.2176471 30.1235294,37.7411765 32.0823529,42.3117647 C32.3,42.7470588 32.5176471,43.4 32.7352941,44.2705882 C34.4764706,44.0529412 41.0058824,42.9647059 42.3117647,42.7470588 C42.5294118,42.7470588 42.9647059,42.7470588 43.1823529,42.5294118 C44.2705882,41.8764706 45.1411765,41.0058824 46.0117647,39.7 L41.2235294,39.2647059 C41.0058824,39.9176471 40.7882353,40.3529412 40.5705882,40.5705882 L40.1352941,40.5705882 C40.3529412,40.1352941 40.3529412,39.7 40.5705882,39.0470588 L39.2647059,39.0470588 L39.2647059,38.8294118 L40.5705882,38.6117647 C40.7882353,37.3058824 41.0058824,36 41.0058824,34.6941176 L34.9117647,34.2588235 L34.9117647,36 L34.4764706,36 C34.2588235,35.3470588 34.2588235,34.6941176 34.2588235,34.2588235 L32.9529412,34.2588235 L32.9529412,33.8235294 L34.2588235,33.8235294 C34.0411765,32.3 34.0411765,30.7764706 34.0411765,29.4705882 L30.5588235,29.2529412 C30.7764706,29.4705882 30.9941176,29.9058824 30.9941176,30.1235294 C31.8647059,32.3 31.6470588,34.6941176 31.4294118,35.7823529 L30.9941176,35.7823529 C30.9941176,34.4764706 30.5588235,32.7352941 30.1235294,31.8647059 C29.2529412,29.4705882 26.8588235,27.5117647 23.3764706,25.1176471 L23.3764706,28.1647059 L22.9411765,28.1647059 C21.6352941,24.2470588 18.5882353,22.0705882 14.2352941,19.8941176 C10.5352941,17.9352941 9.44705882,15.7588235 9.66470588,12.0588235 L10.9705882,12.7117647 C11.1882353,15.9764706 13.8,17.9352941 16.6294118,17.9352941 C18.1529412,17.9352941 19.6764706,17.7176471 21.2,17.5 C23.1588235,17.0647059 25.1176471,16.6294118 26.8588235,17.2823529 L26.8588235,15.3235294 L25.5529412,15.3235294 C25.1176471,15.7588235 24.2470588,16.1941176 22.9411765,16.1941176 C21.4176471,16.1941176 18.5882353,15.3235294 18.5882353,12.2764706 C18.5882353,9.66470588 20.7647059,9.22941176 22.7235294,9.22941176 L25.9882353,9.22941176 C26.4235294,9.22941176 26.6411765,9.22941176 26.8588235,9.01176471 C27.0764706,8.79411765 27.0764706,8.57647059 27.0764706,8.35882353 L27.0764706,7.05294118 L27.0764706,5.09411765 L18.3705882,5.09411765 L18.3705882,8.57647059 L15.1058824,7.70588235 L15.1058824,6.83529412 L16.6294118,6.83529412 L16.6294118,5.52941176 L10.7529412,5.52941176 L10.7529412,2.7 L8.79411765,2.7 C7.70588235,2.7 6.61764706,3.35294118 6.4,4.87647059 C6.4,6.18235294 6.83529412,7.48823529 8.35882353,7.48823529 L8.57647059,7.48823529 L8.57647059,9.22941176 L8.35882353,9.22941176 C5.96470588,9.22941176 4.00588235,7.27058824 4.00588235,4.87647059 C4.00588235,2.26470588 6.18235294,0.305882353 8.79411765,0.305882353 L12.9294118,0.305882353 L12.9294118,3.13529412 L29.2529412,3.13529412 L29.2529412,7.27058824 L29.2529412,9.44705882 C29.2529412,9.88235294 29.0352941,10.7529412 28.1647059,11.4058824 C27.7294118,11.8411765 26.8588235,11.8411765 25.7705882,11.8411765 L22.7235294,11.8411765 C20.7647059,11.6235294 20.3294118,12.4941176 20.3294118,13.1470588 L20.3294118,13.5823529 C21.2,12.9294118 22.5058824,12.4941176 23.8117647,12.9294118 C26.2058824,13.8 27.0764706,13.8 28.1647059,12.7117647 L28.3823529,12.9294118 C28.1647059,13.1470588 27.9470588,13.3647059 27.7294118,13.8 L28.8176471,13.8 L28.8176471,20.3294118 L32.5176471,18.1529412 L42.9647059,18.1529412 C42.9647059,18.1529412 47.3176471,20.5470588 48.1882353,20.7647059 C48.8411765,21.2 49.0588235,21.4176471 49.2764706,22.0705882 C49.2764706,22.5058824 49.2764706,23.1588235 49.0588235,23.5941176 C48.8411765,23.8117647 47.7529412,25.7705882 47.1,26.8588235 C48.8411765,28.8176471 50.1470588,31.4294118 50.1470588,34.4764706 C50.1470588,37.0882353 49.0588235,40.5705882 45.7941176,43.1823529 C47.3176471,43.6176471 48.1882353,44.4882353 48.8411765,45.3588235 L47.7529412,48.8411765 Z M24.6823529,14.0176471 C23.1588235,13.8 22.5058824,13.8 21.6352941,14.6705882 C22.0705882,14.8882353 22.5058824,14.8882353 23.1588235,14.8882353 C23.8117647,14.8882353 24.2470588,14.4529412 24.6823529,14.0176471 Z M23.8117647,23.3764706 L27.9470588,20.9823529 C27.0764706,20.5470588 26.2058824,20.3294118 25.1176471,20.3294118 C23.5941176,20.3294118 21.2,20.9823529 20.1117647,21.2 C20.7647059,21.2 22.5058824,22.5058824 23.8117647,23.3764706 Z M42.0941176,23.5941176 L42.7470588,22.7235294 L41.8764706,21.6352941 L42.0941176,21.4176471 L44.4882353,22.7235294 L44.0529412,24.4647059 C44.4882353,24.6823529 44.9235294,24.9 45.3588235,25.3352941 L46.8823529,22.7235294 L42.7470588,20.5470588 L33.6058824,20.5470588 L26.2058824,25.1176471 C27.5117647,25.9882353 28.8176471,27.0764706 29.9058824,28.1647059 C31.8647059,25.3352941 35.3470588,23.3764706 38.8294118,23.3764706 C39.7,22.9411765 41.0058824,23.1588235 42.0941176,23.5941176 Z M41.4411765,34.0411765 C41.4411765,32.7352941 41.2235294,31.4294118 41.0058824,30.3411765 L36,30.1235294 C35.5647059,31.6470588 35.3470588,32.9529412 35.3470588,34.4764706 L41.4411765,34.0411765 Z M42.9647059,30.3411765 C43.1823529,31.6470588 43.1823529,32.7352941 42.9647059,33.8235294 L47.7529412,33.6058824 C47.5352941,32.5176471 47.3176471,31.4294118 46.8823529,30.5588235 L42.9647059,30.3411765 Z M40.5705882,28.8176471 C40.1352941,27.0764706 39.4823529,25.7705882 39.0470588,25.3352941 L38.3941176,25.3352941 L37.3058824,25.3352941 C36.8705882,26.6411765 36.4352941,27.7294118 36,29.0352941 L40.5705882,28.8176471 Z M41.8764706,25.7705882 C42.3117647,26.6411765 42.5294118,27.7294118 42.7470588,28.6 L45.7941176,28.3823529 C44.7058824,27.2941176 43.4,26.4235294 41.8764706,25.7705882 Z M47.3176471,38.3941176 C47.7529412,37.5235294 47.9705882,36.6529412 47.9705882,35.7823529 L42.9647059,35.5647059 C42.7470588,36.8705882 42.3117647,38.1764706 41.8764706,39.2647059 L47.3176471,38.3941176 Z M34.9117647,25.9882353 C33.1705882,26.6411765 32.0823529,27.7294118 30.9941176,29.2529412 L34.4764706,29.0352941 C34.6941176,27.5117647 34.9117647,26.6411765 34.9117647,25.9882353 Z"></path>
                                    </g>
                                    <g transform="translate(2.176471, 49.058824)" fill="#FFFFFF">
                                        <path d="M26.4235294,7.18235294 C27.7294118,6.96470588 29.2529412,5.87647059 29.2529412,4.13529412 C29.2529412,2.61176471 28.6,1.08823529 24.2470588,1.08823529 L16.8470588,1.08823529 L16.8470588,1.30588235 C17.0647059,1.30588235 17.5,1.52352941 17.7176471,1.74117647 C18.1529412,2.17647059 18.3705882,3.04705882 18.3705882,3.91764706 L18.3705882,15.0176471 L24.4647059,15.0176471 C27.7294118,15.0176471 30.3411765,13.7117647 30.3411765,10.8823529 C30.1235294,8.27058824 28.3823529,7.18235294 26.4235294,7.18235294 Z M23.3764706,2.39411765 C24.9,2.39411765 25.9882353,2.82941176 25.9882353,4.35294118 C25.9882353,6.09411765 24.4647059,6.52941176 22.9411765,6.52941176 L21.6352941,6.52941176 L21.6352941,2.17647059 C21.4176471,2.39411765 22.2882353,2.39411765 23.3764706,2.39411765 Z M23.3764706,13.4941176 L21.4176471,13.4941176 L21.4176471,7.83529412 L23.3764706,7.83529412 C25.9882353,7.83529412 26.8588235,8.70588235 26.8588235,10.4470588 C26.8588235,12.6235294 25.5529412,13.4941176 23.3764706,13.4941176 Z"></path>
                                        <path d="M11.4058824,14.8 L15.3235294,14.8 L10.3176471,8.27058824 C12.2764706,7.83529412 13.8,6.52941176 13.8,4.57058824 C13.8,2.17647059 12.2764706,0.870588235 8.57647059,0.870588235 L0.958823529,0.870588235 L0.958823529,1.08823529 C1.17647059,1.08823529 1.61176471,1.30588235 1.82941176,1.52352941 C2.26470588,1.95882353 2.48235294,2.82941176 2.48235294,3.91764706 L2.48235294,14.8 L5.74705882,14.8 L5.74705882,8.70588235 L6.83529412,8.70588235 L11.4058824,14.8 Z M5.74705882,2.39411765 L7.92352941,2.39411765 C9.66470588,2.39411765 10.7529412,2.82941176 10.7529412,4.78823529 C10.7529412,6.52941176 9.44705882,7.4 7.48823529,7.4 L5.74705882,7.4 L5.74705882,2.39411765 Z"></path>
                                        <path d="M43.1823529,2.82941176 C44.0529412,3.26470588 44.2705882,3.91764706 44.2705882,3.91764706 L44.4882353,3.91764706 L45.1411765,1.52352941 C45.1411765,1.52352941 43.8352941,0.652941176 41.0058824,0.652941176 C36.4352941,0.652941176 33.1705882,2.82941176 33.1705882,7.83529412 C33.1705882,13.4941176 37.0882353,14.8 40.7882353,14.8 C44.0529412,14.8 45.3588235,13.7117647 45.3588235,13.7117647 L45.3588235,12.1882353 C45.3588235,12.1882353 44.2705882,13.2764706 41.6588235,13.2764706 C39.7,13.2764706 36.6529412,12.4058824 36.4352941,7.83529412 C36.4352941,3.7 38.1764706,2.17647059 40.7882353,2.17647059 C41.8764706,2.39411765 42.7470588,2.61176471 43.1823529,2.82941176 Z"></path>
                                    </g>
                                </g>
                            </g>
                        </g>
                        <path d="M60.7235294,72.4764706 C58.7647059,72.4764706 57.2411765,70.9529412 57.2411765,68.9941176 C57.2411765,67.0352941 58.7647059,65.5117647 60.7235294,65.5117647 C62.6823529,65.5117647 64.2058824,67.0352941 64.2058824,68.9941176 C64.2058824,70.9529412 62.6823529,72.4764706 60.7235294,72.4764706 Z M60.7235294,66.1647059 C59.2,66.1647059 58.1117647,67.4705882 58.1117647,68.9941176 C58.1117647,70.5176471 59.2,71.8235294 60.7235294,71.8235294 C62.2470588,71.8235294 63.3352941,70.5176471 63.3352941,68.9941176 C63.3352941,67.4705882 62.2470588,66.1647059 60.7235294,66.1647059 Z M60.9411765,67.0352941 C61.5941176,67.0352941 62.0294118,67.4705882 62.0294118,68.1235294 C62.0294118,68.7764706 61.5941176,69.2117647 61.1588235,69.2117647 C61.1588235,69.2117647 61.3764706,69.2117647 61.3764706,69.4294118 C61.5941176,69.6470588 62.2470588,70.9529412 62.2470588,70.9529412 L61.3764706,70.9529412 C61.1588235,70.7352941 61.1588235,70.5176471 60.9411765,70.3 C60.5058824,69.6470588 60.5058824,69.4294118 60.2882353,69.4294118 C60.2882353,69.4294118 60.2882353,69.4294118 60.0705882,69.4294118 L60.0705882,70.9529412 L59.4176471,70.9529412 L59.4176471,67.0352941 L60.9411765,67.0352941 L60.9411765,67.0352941 Z M60.2882353,68.7764706 L60.5058824,68.7764706 C60.9411765,68.7764706 60.9411765,68.7764706 61.1588235,68.5588235 C61.1588235,68.5588235 61.3764706,68.3411765 61.3764706,68.1235294 C61.3764706,67.9058824 61.3764706,67.6882353 61.1588235,67.6882353 L60.7235294,67.6882353 L60.5058824,67.6882353 L60.2882353,68.7764706 L60.2882353,68.7764706 Z" id="Shape" fill="#005AB4"></path>
                        <rect id="Rectangle-path" fill="#005AB4" x="84.0117647" y="0.652941176" width="1.74117647" height="72.9117647"></rect>
                        <g id="Group" transform="translate(98.941176, 5.352941)" fill="#005AB4">
                            <polygon id="Shape" points="0.523529412 18.8058824 0.523529412 0.741176471 4.44117647 0.741176471 4.44117647 18.8058824"></polygon>
                            <path d="M15.5411765,18.8058824 L15.5411765,10.1 C15.5411765,8.57647059 15.3235294,8.14117647 14.4529412,8.14117647 C13.8,8.14117647 12.9294118,8.57647059 12.0588235,9.44705882 L12.0588235,18.8058824 L8.57647059,18.8058824 L8.57647059,9.22941176 C8.57647059,8.14117647 8.35882353,7.05294118 8.14117647,6.18235294 L11.1882353,5.31176471 C11.4058824,5.96470588 11.6235294,6.4 11.6235294,7.05294118 C12.0588235,6.61764706 12.4941176,6.4 13.1470588,5.96470588 C13.8,5.52941176 14.6705882,5.31176471 15.5411765,5.31176471 C17.0647059,5.31176471 18.3705882,6.18235294 18.8058824,7.27058824 C19.0235294,7.70588235 19.0235294,8.35882353 19.0235294,9.22941176 L19.0235294,19.0235294 L15.5411765,18.8058824 L15.5411765,18.8058824 Z" id="Shape"></path>
                            <path d="M26.8588235,19.2411765 C25.1176471,19.2411765 23.3764706,18.8058824 21.4176471,17.7176471 L22.7235294,15.1058824 C23.8117647,15.7588235 25.5529412,16.6294118 27.0764706,16.6294118 C28.1647059,16.6294118 28.8176471,15.9764706 28.8176471,15.1058824 C28.8176471,14.2352941 28.1647059,13.8 26.8588235,13.3647059 L25.3352941,13.1470588 C24.4647059,12.9294118 23.3764706,12.2764706 22.9411765,11.8411765 C22.5058824,11.1882353 22.2882353,10.3176471 22.2882353,9.44705882 C22.2882353,6.83529412 24.2470588,5.09411765 27.5117647,5.09411765 C29.6882353,5.09411765 30.9941176,5.74705882 32.3,6.4 L31.2117647,8.79411765 C29.9058824,8.14117647 28.8176471,7.92352941 27.9470588,7.92352941 C26.8588235,7.92352941 26.2058824,8.35882353 26.2058824,9.22941176 C26.2058824,9.88235294 26.6411765,10.3176471 27.9470588,10.5352941 L29.4705882,10.9705882 C31.2117647,11.4058824 31.6470588,11.8411765 32.0823529,12.4941176 C32.5176471,13.1470588 32.7352941,13.8 32.7352941,14.6705882 C32.7352941,17.2823529 30.3411765,19.2411765 26.8588235,19.2411765 Z" id="Shape"></path>
                            <path d="M44.0529412,19.2411765 C43.6176471,19.0235294 43.1823529,18.5882353 42.9647059,17.9352941 C42.0941176,18.8058824 40.7882353,19.2411765 39.4823529,19.2411765 C37.5235294,19.2411765 36,18.3705882 35.5647059,17.0647059 C35.3470588,16.4117647 35.3470588,15.7588235 35.3470588,14.4529412 L35.3470588,5.96470588 L38.8294118,5.31176471 L38.8294118,13.8 C38.8294118,15.1058824 38.8294118,15.5411765 39.0470588,15.9764706 C39.2647059,16.4117647 39.7,16.6294118 40.3529412,16.6294118 C41.2235294,16.6294118 42.3117647,15.9764706 42.5294118,15.3235294 L42.5294118,5.96470588 L45.7941176,5.31176471 L45.7941176,15.5411765 C45.7941176,16.4117647 46.0117647,17.2823529 46.6647059,17.9352941 L44.0529412,19.2411765 Z" id="Shape"></path>
                            <path d="M56.2411765,8.57647059 C55.8058824,8.35882353 55.5882353,8.35882353 55.1529412,8.35882353 C54.2823529,8.35882353 53.6294118,8.79411765 52.9764706,9.44705882 L52.9764706,18.8058824 L49.4941176,18.8058824 L49.4941176,9.88235294 C49.4941176,8.14117647 49.2764706,6.61764706 49.0588235,5.96470588 L52.1058824,5.09411765 C52.3235294,5.74705882 52.5411765,6.18235294 52.7588235,7.05294118 C53.4117647,5.96470588 54.5,5.09411765 55.8058824,5.09411765 C56.2411765,5.09411765 56.4588235,5.09411765 57.1117647,5.31176471 L56.2411765,8.57647059 Z" id="Shape"></path>
                            <path d="M68.4294118,19.4588235 C67.5588235,19.0235294 66.9058824,18.5882353 66.4705882,17.9352941 C66.2529412,18.1529412 65.8176471,18.3705882 65.6,18.5882353 C64.9470588,19.0235294 64.0764706,19.2411765 62.9882353,19.2411765 C59.9411765,19.2411765 58.4176471,17.7176471 58.4176471,15.1058824 C58.4176471,12.0588235 60.5941176,10.5352941 64.9470588,10.5352941 L65.8176471,10.5352941 L65.8176471,9.88235294 C65.8176471,8.35882353 65.6,7.92352941 64.2941176,7.92352941 C63.2058824,7.92352941 61.9,8.57647059 60.3764706,9.44705882 L58.8529412,6.83529412 C59.5058824,6.4 60.1588235,6.18235294 61.0294118,5.74705882 C62.3352941,5.09411765 63.4235294,4.87647059 64.7294118,4.87647059 C66.9058824,4.87647059 68.4294118,5.74705882 69.0823529,7.27058824 C69.3,7.92352941 69.3,8.14117647 69.3,9.66470588 L69.3,14.2352941 C69.3,15.7588235 69.3,16.4117647 70.6058824,17.2823529 L68.4294118,19.4588235 Z M65.6,12.9294118 C63.2058824,12.9294118 62.3352941,13.3647059 62.3352941,14.8882353 C62.3352941,15.9764706 62.9882353,16.6294118 63.8588235,16.6294118 C64.5117647,16.6294118 65.1647059,16.1941176 65.6,15.7588235 L65.6,12.9294118 L65.6,12.9294118 L65.6,12.9294118 Z" id="Shape"></path>
                            <path d="M79.9647059,18.8058824 L79.9647059,10.1 C79.9647059,8.57647059 79.7470588,8.14117647 78.8764706,8.14117647 C78.2235294,8.14117647 77.3529412,8.57647059 76.4823529,9.44705882 L76.4823529,18.8058824 L73,18.8058824 L73,9.22941176 C73,8.14117647 72.7823529,7.05294118 72.5647059,6.18235294 L75.6117647,5.31176471 C75.8294118,5.96470588 76.0470588,6.4 76.0470588,7.05294118 C76.4823529,6.61764706 76.9176471,6.4 77.5705882,5.96470588 C78.2235294,5.52941176 79.0941176,5.31176471 79.9647059,5.31176471 C81.4882353,5.31176471 82.7941176,6.18235294 83.2294118,7.27058824 C83.4470588,7.70588235 83.4470588,8.35882353 83.4470588,9.22941176 L83.4470588,19.0235294 L79.9647059,18.8058824 L79.9647059,18.8058824 Z" id="Shape"></path>
                            <path d="M95.6352941,18.3705882 C94.7647059,19.0235294 93.6764706,19.2411765 92.3705882,19.2411765 C88.6705882,19.2411765 86.4941176,16.6294118 86.4941176,12.2764706 C86.4941176,9.22941176 87.5823529,7.05294118 89.3235294,6.18235294 C90.1941176,5.52941176 91.5,5.09411765 92.5882353,5.09411765 C93.4588235,5.09411765 94.5470588,5.31176471 95.2,5.74705882 C95.6352941,5.96470588 95.8529412,6.18235294 96.5058824,6.61764706 L94.7647059,9.01176471 C94.1117647,8.35882353 93.2411765,7.92352941 92.5882353,7.92352941 C91.0647059,7.92352941 90.4117647,9.22941176 90.4117647,12.4941176 C90.4117647,14.2352941 90.6294118,15.3235294 91.0647059,15.7588235 C91.5,16.1941176 91.9352941,16.4117647 92.5882353,16.4117647 C93.4588235,16.4117647 94.1117647,15.9764706 94.9823529,15.3235294 L95.2,15.1058824 L96.7235294,17.2823529 C96.2882353,17.7176471 96.0705882,17.9352941 95.6352941,18.3705882 Z" id="Shape"></path>
                            <path d="M101.947059,13.1470588 L101.947059,13.1470588 C101.947059,15.3235294 103.035294,16.4117647 104.776471,16.4117647 C106.082353,16.4117647 107.170588,15.9764706 108.258824,15.1058824 L109.564706,17.2823529 C108.041176,18.5882353 106.3,19.2411765 104.558824,19.2411765 C100.641176,19.2411765 98.2470588,16.6294118 98.2470588,12.2764706 C98.2470588,9.88235294 98.6823529,8.35882353 99.9882353,7.05294118 C101.076471,5.74705882 102.382353,5.31176471 104.123529,5.31176471 C105.647059,5.31176471 107.170588,5.74705882 108.041176,6.61764706 C109.347059,7.92352941 109.782353,9.66470588 109.782353,12.4941176 L109.782353,13.3647059 L101.947059,13.1470588 L101.947059,13.1470588 Z M106.082353,10.5352941 C106.082353,9.44705882 106.082353,9.01176471 105.647059,8.57647059 C105.211765,8.14117647 104.776471,7.70588235 104.123529,7.70588235 C102.817647,7.70588235 101.947059,8.79411765 101.947059,10.5352941 L101.947059,10.5352941 L106.082353,10.5352941 L106.082353,10.5352941 L106.082353,10.5352941 Z" id="Shape"></path>
                        </g>
                    </g>
                </g>
            </g>
        </g>
    </g>
</svg>