<?xml version="1.0" encoding="UTF-8" standalone="no"?>
<svg width="114px" height="42px" viewBox="0 0 114 42" version="1.1" xmlns="http://www.w3.org/2000/svg" xmlns:xlink="http://www.w3.org/1999/xlink">
    <!-- Generator: Sketch 41.2 (35397) - http://www.bohemiancoding.com/sketch -->
    <title>RBC_logo_BG_blue</title>
    <desc>Created with Sketch.</desc>
    <defs></defs>
    <g id="UI-Elements" stroke="none" stroke-width="1" fill="none" fill-rule="evenodd">
        <g id="UI-Elments" transform="translate(-444.000000, -150.000000)">
            <g id="RBG-logo_BG_Blue" transform="translate(445.000000, 151.000000)">
                <g id="RBC_logo_BG_blue">
                    <g id="One_line_x2C__cmyk_x2C__positive">
                        <g id="Layer_2_4_">
                            <g id="Group">
                                <path d="M30.3026605,34.9411765 C30.3026605,36.2352941 29.7153996,37.0588235 28.7757822,37.4117647 C24.7824084,38.9411765 19.9668693,39.7647059 15.3862346,39.7647059 C10.8055999,39.7647059 5.99006079,38.9411765 1.99668693,37.4117647 C0.939617379,37.0588235 0.469808689,36.2352941 0.469808689,34.9411765 L0.469808689,0.352941176 L30.4201126,0.352941176 L30.4201126,34.9411765 L30.3026605,34.9411765 Z" id="Shape" stroke="#FFFFFF"></path>
                                <g transform="translate(1.714167, 1.717011)" id="Shape">
                                    <g fill="#FEDF01">
                                        <path d="M6.74238957,19.6947536 C2.63156354,17.1065183 1.22213747,15.9300477 1.1046853,14.2829889 C1.1046853,13.9300477 1.1046853,13.3418124 1.33958964,12.9888712 L0.987233125,12.7535771 C0.634876607,13.2241653 0.517424435,13.9300477 0.517424435,14.518283 C0.517424435,15.4594595 0.869780952,16.2829889 1.22213747,16.8712242 C1.80939833,17.8124006 2.39665919,18.2829889 3.92353743,19.4594595 C5.56786785,20.63593 6.6249374,22.1653418 7.32965043,23.5771065 L7.56455478,23.5771065 L7.56455478,21.8124006 C9.79614605,23.1065183 11.6753808,24.2829889 12.6149982,26.2829889 L12.8499025,26.2829889 C12.3800938,24.1653418 11.0881199,22.518283 6.74238957,19.6947536 Z"></path>
                                        <path d="M25.7696415,26.4006359 L25.5347372,26.4006359 C25.5347372,24.8712242 24.1253111,24.4006359 22.5984328,24.4006359 L17.9003459,24.4006359 C18.0177981,25.1065183 18.1352503,26.0476948 18.0177981,26.8712242 L17.7828938,26.8712242 C17.3130851,23.3418124 15.4338503,21.6947536 12.6149982,19.8124006 L12.6149982,21.3418124 L12.3800938,21.3418124 C11.6753808,19.6947536 10.0310504,18.1653418 8.50417216,17.1065183 L8.50417216,17.1065183 C8.15181564,16.8712242 7.68200695,16.518283 7.21219826,16.1653418 L7.21219826,17.9300477 L6.97729392,17.9300477 C6.39003305,16.2829889 5.21551133,14.9888712 3.45372874,13.4594595 C1.69194616,11.8124006 0.987233125,10.8712242 0.517424435,9.69475358 C0.28252009,8.98887122 0.165067918,8.51828299 0.165067918,7.69475358 C0.165067918,6.40063593 0.869780952,5.22416534 1.69194616,4.75357711 L1.69194616,5.3418124 C1.22213747,5.93004769 1.1046853,6.63593005 1.1046853,7.3418124 C1.1046853,8.04769475 1.22213747,8.75357711 1.57449399,9.3418124 C2.63156354,11.2241653 6.03767654,13.6947536 8.15181564,15.1065183 C14.8465895,19.5771065 16.2560155,20.4006359 17.3130851,22.8712242 C17.4305373,23.1065183 17.5479894,23.4594595 17.6654416,23.9300477 C18.605059,23.8124006 22.1286242,23.2241653 22.8333372,23.1065183 C22.9507894,23.1065183 23.1856937,23.1065183 23.3031459,22.9888712 C23.8904067,22.63593 24.3602154,22.1653418 24.8300241,21.4594595 L22.2460763,21.2241653 C22.1286242,21.5771065 22.011172,21.8124006 21.8937198,21.9300477 L21.6588155,21.9300477 C21.7762676,21.6947536 21.7762676,21.4594595 21.8937198,21.1065183 L21.1890068,21.1065183 L21.1890068,20.9888712 L21.8937198,20.8712242 C22.011172,20.1653418 22.1286242,19.4594595 22.1286242,18.7535771 L18.8399633,18.518283 L18.8399633,19.4594595 L18.605059,19.4594595 C18.4876068,19.1065183 18.4876068,18.7535771 18.4876068,18.518283 L17.7828938,18.518283 L17.7828938,18.2829889 L18.4876068,18.2829889 C18.3701546,17.4594595 18.3701546,16.63593 18.3701546,15.9300477 L16.4909199,15.8124006 C16.6083721,15.9300477 16.7258242,16.1653418 16.7258242,16.2829889 C17.1956329,17.4594595 17.0781807,18.7535771 16.9607286,19.3418124 L16.7258242,19.3418124 C16.7258242,18.63593 16.4909199,17.6947536 16.2560155,17.2241653 C15.7862068,15.9300477 14.4942329,14.8712242 12.6149982,13.5771065 L12.6149982,15.2241653 L12.3800938,15.2241653 C11.6753808,13.1065183 10.0310504,11.9300477 7.68200695,10.7535771 C5.68532002,9.69475358 5.09805916,8.51828299 5.21551133,6.51828299 L5.92022436,6.87122417 C6.03767654,8.63593005 7.4471026,9.69475358 8.97398085,9.69475358 C9.79614605,9.69475358 10.6183113,9.57710652 11.4404765,9.45945946 C12.497546,9.22416534 13.5546156,8.98887122 14.4942329,9.3418124 L14.4942329,8.28298887 L13.7895199,8.28298887 C13.5546156,8.51828299 13.0848069,8.75357711 12.3800938,8.75357711 C11.5579286,8.75357711 10.0310504,8.28298887 10.0310504,6.63593005 C10.0310504,5.22416534 11.2055721,4.98887122 12.2626417,4.98887122 L14.0244243,4.98887122 C14.2593286,4.98887122 14.3767808,4.98887122 14.4942329,4.87122417 C14.6116851,4.75357711 14.6116851,4.63593005 14.6116851,4.51828299 L14.6116851,3.81240064 L14.6116851,2.75357711 L9.91359822,2.75357711 L9.91359822,4.63593005 L8.15181564,4.16534181 L8.15181564,3.69475358 L8.97398085,3.69475358 L8.97398085,2.98887122 L5.80277219,2.98887122 L5.80277219,1.45945946 L4.74570264,1.45945946 C4.15844178,1.45945946 3.57118092,1.81240064 3.45372874,2.63593005 C3.45372874,3.3418124 3.68863309,4.04769475 4.5107983,4.04769475 L4.62825047,4.04769475 L4.62825047,4.98887122 L4.5107983,4.98887122 C3.2188244,4.98887122 2.16175485,3.93004769 2.16175485,2.63593005 C2.16175485,1.22416534 3.33627657,0.165341812 4.74570264,0.165341812 L6.97729392,0.165341812 L6.97729392,1.69475358 L15.7862068,1.69475358 L15.7862068,3.93004769 L15.7862068,5.10651828 C15.7862068,5.3418124 15.6687547,5.81240064 15.198946,6.16534181 C14.9640416,6.40063593 14.4942329,6.40063593 13.9069721,6.40063593 L12.2626417,6.40063593 C11.2055721,6.28298887 10.9706678,6.75357711 10.9706678,7.10651828 L10.9706678,7.3418124 C11.4404765,6.98887122 12.1451895,6.75357711 12.8499025,6.98887122 C14.1418764,7.45945946 14.6116851,7.45945946 15.198946,6.87122417 L15.3163982,6.98887122 C15.198946,7.10651828 15.0814938,7.22416534 14.9640416,7.45945946 L15.5513025,7.45945946 L15.5513025,10.9888712 L17.5479894,9.81240064 L23.1856937,9.81240064 C23.1856937,9.81240064 25.5347372,11.1065183 26.0045458,11.2241653 C26.3569024,11.4594595 26.4743545,11.5771065 26.5918067,11.9300477 C26.5918067,12.1653418 26.5918067,12.518283 26.4743545,12.7535771 C26.3569024,12.8712242 25.7696415,13.9300477 25.417285,14.518283 C26.3569024,15.5771065 27.0616154,16.9888712 27.0616154,18.63593 C27.0616154,20.0476948 26.4743545,21.9300477 24.7125719,23.3418124 C25.5347372,23.5771065 26.0045458,24.0476948 26.3569024,24.518283 L25.7696415,26.4006359 Z M13.3197112,7.57710652 C12.497546,7.45945946 12.1451895,7.45945946 11.6753808,7.93004769 C11.9102852,8.04769475 12.1451895,8.04769475 12.497546,8.04769475 C12.8499025,8.04769475 13.0848069,7.81240064 13.3197112,7.57710652 Z M12.8499025,12.63593 L15.0814938,11.3418124 C14.6116851,11.1065183 14.1418764,10.9888712 13.5546156,10.9888712 C12.7324504,10.9888712 11.4404765,11.3418124 10.8532156,11.4594595 C11.2055721,11.4594595 12.1451895,12.1653418 12.8499025,12.63593 Z M22.715885,12.7535771 L23.0682415,12.2829889 L22.5984328,11.6947536 L22.715885,11.5771065 L24.0078589,12.2829889 L23.7729546,13.2241653 C24.0078589,13.3418124 24.2427633,13.4594595 24.4776676,13.6947536 L25.2998328,12.2829889 L23.0682415,11.1065183 L18.1352503,11.1065183 L14.1418764,13.5771065 C14.8465895,14.0476948 15.5513025,14.63593 16.1385634,15.2241653 C17.1956329,13.6947536 19.0748677,12.63593 20.9541024,12.63593 C21.4239111,12.4006359 22.1286242,12.518283 22.715885,12.7535771 Z M22.3635285,18.4006359 C22.3635285,17.6947536 22.2460763,16.9888712 22.1286242,16.4006359 L19.4272242,16.2829889 C19.1923198,17.1065183 19.0748677,17.8124006 19.0748677,18.63593 L22.3635285,18.4006359 Z M23.1856937,16.4006359 C23.3031459,17.1065183 23.3031459,17.6947536 23.1856937,18.2829889 L25.7696415,18.1653418 C25.6521893,17.5771065 25.5347372,16.9888712 25.2998328,16.518283 L23.1856937,16.4006359 Z M21.8937198,15.5771065 C21.6588155,14.63593 21.3064589,13.9300477 21.0715546,13.6947536 L20.7191981,13.6947536 L20.1319372,13.6947536 C19.8970329,14.4006359 19.6621285,14.9888712 19.4272242,15.6947536 L21.8937198,15.5771065 Z M22.5984328,13.9300477 C22.8333372,14.4006359 22.9507894,14.9888712 23.0682415,15.4594595 L24.7125719,15.3418124 C24.1253111,14.7535771 23.420598,14.2829889 22.5984328,13.9300477 Z M25.5347372,20.7535771 C25.7696415,20.2829889 25.8870937,19.8124006 25.8870937,19.3418124 L23.1856937,19.2241653 C23.0682415,19.9300477 22.8333372,20.63593 22.5984328,21.2241653 L25.5347372,20.7535771 Z M18.8399633,14.0476948 C17.9003459,14.4006359 17.3130851,14.9888712 16.7258242,15.8124006 L18.605059,15.6947536 C18.7225112,14.8712242 18.8399633,14.4006359 18.8399633,14.0476948 Z"></path>
                                    </g>
                                    <g transform="translate(1.174522, 26.518283)" fill="#FFFFFF">
                                        <path d="M14.2593286,3.88235294 C14.9640416,3.76470588 15.7862068,3.17647059 15.7862068,2.23529412 C15.7862068,1.41176471 15.4338503,0.588235294 13.0848069,0.588235294 L9.09143302,0.588235294 L9.09143302,0.705882353 C9.20888519,0.705882353 9.44378954,0.823529412 9.56124171,0.941176471 C9.79614605,1.17647059 9.91359822,1.64705882 9.91359822,2.11764706 L9.91359822,8.11764706 L13.2022591,8.11764706 C14.9640416,8.11764706 16.3734677,7.41176471 16.3734677,5.88235294 C16.2560155,4.47058824 15.3163982,3.88235294 14.2593286,3.88235294 Z M12.6149982,1.29411765 C13.4371634,1.29411765 14.0244243,1.52941176 14.0244243,2.35294118 C14.0244243,3.29411765 13.2022591,3.52941176 12.3800938,3.52941176 L11.6753808,3.52941176 L11.6753808,1.17647059 C11.5579286,1.29411765 12.0277373,1.29411765 12.6149982,1.29411765 Z M12.6149982,7.29411765 L11.5579286,7.29411765 L11.5579286,4.23529412 L12.6149982,4.23529412 C14.0244243,4.23529412 14.4942329,4.70588235 14.4942329,5.64705882 C14.4942329,6.82352941 13.7895199,7.29411765 12.6149982,7.29411765 Z"></path>
                                        <path d="M6.15512871,8 L8.26926781,8 L5.56786785,4.47058824 C6.6249374,4.23529412 7.4471026,3.52941176 7.4471026,2.47058824 C7.4471026,1.17647059 6.6249374,0.470588235 4.62825047,0.470588235 L0.517424435,0.470588235 L0.517424435,0.588235294 C0.634876607,0.588235294 0.869780952,0.705882353 0.987233125,0.823529412 C1.22213747,1.05882353 1.33958964,1.52941176 1.33958964,2.11764706 L1.33958964,8 L3.10137223,8 L3.10137223,4.70588235 L3.68863309,4.70588235 L6.15512871,8 Z M3.10137223,1.29411765 L4.27589395,1.29411765 C5.21551133,1.29411765 5.80277219,1.52941176 5.80277219,2.58823529 C5.80277219,3.52941176 5.09805916,4 4.04098961,4 L3.10137223,4 L3.10137223,1.29411765 Z"></path>
                                        <path d="M23.3031459,1.52941176 C23.7729546,1.76470588 23.8904067,2.11764706 23.8904067,2.11764706 L24.0078589,2.11764706 L24.3602154,0.823529412 C24.3602154,0.823529412 23.6555024,0.352941176 22.1286242,0.352941176 C19.6621285,0.352941176 17.9003459,1.52941176 17.9003459,4.23529412 C17.9003459,7.29411765 20.014485,8 22.011172,8 C23.7729546,8 24.4776676,7.41176471 24.4776676,7.41176471 L24.4776676,6.58823529 C24.4776676,6.58823529 23.8904067,7.17647059 22.4809807,7.17647059 C21.4239111,7.17647059 19.7795807,6.70588235 19.6621285,4.23529412 C19.6621285,2 20.6017459,1.17647059 22.011172,1.17647059 C22.5984328,1.29411765 23.0682415,1.41176471 23.3031459,1.52941176 Z"></path>
                                    </g>
                                </g>
                            </g>
                        </g>
                        <path d="M32.7691561,39.1764706 C31.7120865,39.1764706 30.8899213,38.3529412 30.8899213,37.2941176 C30.8899213,36.2352941 31.7120865,35.4117647 32.7691561,35.4117647 C33.8262256,35.4117647 34.6483908,36.2352941 34.6483908,37.2941176 C34.6483908,38.3529412 33.8262256,39.1764706 32.7691561,39.1764706 Z M32.7691561,35.7647059 C31.9469909,35.7647059 31.35973,36.4705882 31.35973,37.2941176 C31.35973,38.1176471 31.9469909,38.8235294 32.7691561,38.8235294 C33.5913213,38.8235294 34.1785822,38.1176471 34.1785822,37.2941176 C34.1785822,36.4705882 33.5913213,35.7647059 32.7691561,35.7647059 Z M32.8866083,36.2352941 C33.2389648,36.2352941 33.4738691,36.4705882 33.4738691,36.8235294 C33.4738691,37.1764706 33.2389648,37.4117647 33.0040604,37.4117647 C33.0040604,37.4117647 33.1215126,37.4117647 33.1215126,37.5294118 C33.2389648,37.6470588 33.5913213,38.3529412 33.5913213,38.3529412 L33.1215126,38.3529412 C33.0040604,38.2352941 33.0040604,38.1176471 32.8866083,38 C32.6517039,37.6470588 32.6517039,37.5294118 32.5342517,37.5294118 C32.5342517,37.5294118 32.5342517,37.5294118 32.4167996,37.5294118 L32.4167996,38.3529412 L32.0644431,38.3529412 L32.0644431,36.2352941 L32.8866083,36.2352941 L32.8866083,36.2352941 Z M32.5342517,37.1764706 L32.6517039,37.1764706 C32.8866083,37.1764706 32.8866083,37.1764706 33.0040604,37.0588235 C33.0040604,37.0588235 33.1215126,36.9411765 33.1215126,36.8235294 C33.1215126,36.7058824 33.1215126,36.5882353 33.0040604,36.5882353 L32.7691561,36.5882353 L32.6517039,36.5882353 L32.5342517,37.1764706 L32.5342517,37.1764706 Z" id="Shape" fill="#FFFFFF"></path>
                        <rect id="Rectangle-path" fill="#FFFFFF" x="45.3365385" y="0.352941176" width="0.939617379" height="39.4117647"></rect>
                        <g id="Group" transform="translate(53.393123, 2.893482)" fill="#FFFFFF">
                            <polygon id="Shape" points="0.28252009 10.1653418 0.28252009 0.40063593 2.39665919 0.40063593 2.39665919 10.1653418"></polygon>
                            <path d="M8.38671998,10.1653418 L8.38671998,5.45945946 C8.38671998,4.63593005 8.26926781,4.40063593 7.79945912,4.40063593 C7.4471026,4.40063593 6.97729392,4.63593005 6.50748523,5.10651828 L6.50748523,10.1653418 L4.62825047,10.1653418 L4.62825047,4.98887122 C4.62825047,4.40063593 4.5107983,3.81240064 4.39334612,3.3418124 L6.03767654,2.87122417 C6.15512871,3.22416534 6.27258088,3.45945946 6.27258088,3.81240064 C6.50748523,3.57710652 6.74238957,3.45945946 7.09474609,3.22416534 C7.4471026,2.98887122 7.91691129,2.87122417 8.38671998,2.87122417 C9.20888519,2.87122417 9.91359822,3.3418124 10.1485026,3.93004769 C10.2659547,4.16534181 10.2659547,4.51828299 10.2659547,4.98887122 L10.2659547,10.2829889 L8.38671998,10.1653418 L8.38671998,10.1653418 Z" id="Shape"></path>
                            <path d="M14.4942329,10.4006359 C13.5546156,10.4006359 12.6149982,10.1653418 11.5579286,9.57710652 L12.2626417,8.16534181 C12.8499025,8.51828299 13.7895199,8.98887122 14.6116851,8.98887122 C15.198946,8.98887122 15.5513025,8.63593005 15.5513025,8.16534181 C15.5513025,7.69475358 15.198946,7.45945946 14.4942329,7.22416534 L13.6720677,7.10651828 C13.2022591,6.98887122 12.6149982,6.63593005 12.3800938,6.40063593 C12.1451895,6.04769475 12.0277373,5.57710652 12.0277373,5.10651828 C12.0277373,3.69475358 13.0848069,2.75357711 14.8465895,2.75357711 C16.0211112,2.75357711 16.7258242,3.10651828 17.4305373,3.45945946 L16.8432764,4.75357711 C16.1385634,4.40063593 15.5513025,4.28298887 15.0814938,4.28298887 C14.4942329,4.28298887 14.1418764,4.51828299 14.1418764,4.98887122 C14.1418764,5.3418124 14.3767808,5.57710652 15.0814938,5.69475358 L15.903659,5.93004769 C16.8432764,6.16534181 17.0781807,6.40063593 17.3130851,6.75357711 C17.5479894,7.10651828 17.6654416,7.45945946 17.6654416,7.93004769 C17.6654416,9.3418124 16.3734677,10.4006359 14.4942329,10.4006359 Z" id="Shape"></path>
                            <path d="M23.7729546,10.4006359 C23.5380502,10.2829889 23.3031459,10.0476948 23.1856937,9.69475358 C22.715885,10.1653418 22.011172,10.4006359 21.3064589,10.4006359 C20.2493894,10.4006359 19.4272242,9.93004769 19.1923198,9.22416534 C19.0748677,8.87122417 19.0748677,8.51828299 19.0748677,7.81240064 L19.0748677,3.22416534 L20.9541024,2.87122417 L20.9541024,7.45945946 C20.9541024,8.16534181 20.9541024,8.40063593 21.0715546,8.63593005 C21.1890068,8.87122417 21.4239111,8.98887122 21.7762676,8.98887122 C22.2460763,8.98887122 22.8333372,8.63593005 22.9507894,8.28298887 L22.9507894,3.22416534 L24.7125719,2.87122417 L24.7125719,8.40063593 C24.7125719,8.87122417 24.8300241,9.3418124 25.1823806,9.69475358 L23.7729546,10.4006359 Z" id="Shape"></path>
                            <path d="M30.3502762,4.63593005 C30.1153719,4.51828299 29.9979197,4.51828299 29.7630154,4.51828299 C29.2932067,4.51828299 28.9408501,4.75357711 28.5884936,5.10651828 L28.5884936,10.1653418 L26.7092589,10.1653418 L26.7092589,5.3418124 C26.7092589,4.40063593 26.5918067,3.57710652 26.4743545,3.22416534 L28.1186849,2.75357711 C28.2361371,3.10651828 28.3535893,3.3418124 28.4710415,3.81240064 C28.823398,3.22416534 29.4106588,2.75357711 30.1153719,2.75357711 C30.3502762,2.75357711 30.4677284,2.75357711 30.8200849,2.87122417 L30.3502762,4.63593005 Z" id="Shape"></path>
                            <path d="M36.9275979,10.518283 C36.4577892,10.2829889 36.1054327,10.0476948 35.8705283,9.69475358 C35.7530761,9.81240064 35.5181718,9.93004769 35.4007196,10.0476948 C35.0483631,10.2829889 34.5785544,10.4006359 33.9912936,10.4006359 C32.3469631,10.4006359 31.5247979,9.57710652 31.5247979,8.16534181 C31.5247979,6.51828299 32.6993197,5.69475358 35.0483631,5.69475358 L35.5181718,5.69475358 L35.5181718,5.3418124 C35.5181718,4.51828299 35.4007196,4.28298887 34.6960066,4.28298887 C34.1087457,4.28298887 33.4040327,4.63593005 32.5818675,5.10651828 L31.7597023,3.69475358 C32.1120588,3.45945946 32.4644153,3.3418124 32.934224,3.10651828 C33.638937,2.75357711 34.2261979,2.63593005 34.9309109,2.63593005 C36.1054327,2.63593005 36.9275979,3.10651828 37.2799544,3.93004769 C37.3974066,4.28298887 37.3974066,4.40063593 37.3974066,5.22416534 L37.3974066,7.69475358 C37.3974066,8.51828299 37.3974066,8.87122417 38.1021196,9.3418124 L36.9275979,10.518283 Z M35.4007196,6.98887122 C34.1087457,6.98887122 33.638937,7.22416534 33.638937,8.04769475 C33.638937,8.63593005 33.9912936,8.98887122 34.4611023,8.98887122 C34.8134588,8.98887122 35.1658153,8.75357711 35.4007196,8.51828299 L35.4007196,6.98887122 L35.4007196,6.98887122 L35.4007196,6.98887122 Z" id="Shape"></path>
                            <path d="M43.152563,10.1653418 L43.152563,5.45945946 C43.152563,4.63593005 43.0351108,4.40063593 42.5653021,4.40063593 C42.2129456,4.40063593 41.7431369,4.63593005 41.2733282,5.10651828 L41.2733282,10.1653418 L39.3940935,10.1653418 L39.3940935,4.98887122 C39.3940935,4.40063593 39.2766413,3.81240064 39.1591891,3.3418124 L40.8035196,2.87122417 C40.9209717,3.22416534 41.0384239,3.45945946 41.0384239,3.81240064 C41.2733282,3.57710652 41.5082326,3.45945946 41.8605891,3.22416534 C42.2129456,2.98887122 42.6827543,2.87122417 43.152563,2.87122417 C43.9747282,2.87122417 44.6794412,3.3418124 44.9143456,3.93004769 C45.0317978,4.16534181 45.0317978,4.51828299 45.0317978,4.98887122 L45.0317978,10.2829889 L43.152563,10.1653418 L43.152563,10.1653418 Z" id="Shape"></path>
                            <path d="M51.6091194,9.93004769 C51.1393107,10.2829889 50.5520499,10.4006359 49.8473368,10.4006359 C47.8506499,10.4006359 46.6761282,8.98887122 46.6761282,6.63593005 C46.6761282,4.98887122 47.263389,3.81240064 48.2030064,3.3418124 C48.6728151,2.98887122 49.3775281,2.75357711 49.964789,2.75357711 C50.4345977,2.75357711 51.0218586,2.87122417 51.3742151,3.10651828 C51.6091194,3.22416534 51.7265716,3.3418124 52.0789281,3.57710652 L51.1393107,4.87122417 C50.7869542,4.51828299 50.3171455,4.28298887 49.964789,4.28298887 C49.1426238,4.28298887 48.7902673,4.98887122 48.7902673,6.75357711 C48.7902673,7.69475358 48.9077195,8.28298887 49.1426238,8.51828299 C49.3775281,8.75357711 49.6124325,8.87122417 49.964789,8.87122417 C50.4345977,8.87122417 50.7869542,8.63593005 51.2567629,8.28298887 L51.3742151,8.16534181 L52.1963803,9.3418124 C51.9614759,9.57710652 51.8440238,9.69475358 51.6091194,9.93004769 Z" id="Shape"></path>
                            <path d="M55.0152324,7.10651828 L55.0152324,7.10651828 C55.0152324,8.28298887 55.6024933,8.87122417 56.5421107,8.87122417 C57.2468237,8.87122417 57.8340846,8.63593005 58.4213454,8.16534181 L59.1260584,9.3418124 C58.3038932,10.0476948 57.3642759,10.4006359 56.4246585,10.4006359 C54.3105194,10.4006359 53.0185455,8.98887122 53.0185455,6.63593005 C53.0185455,5.3418124 53.2534498,4.51828299 53.9581629,3.81240064 C54.5454237,3.10651828 55.2501368,2.87122417 56.1897541,2.87122417 C57.0119193,2.87122417 57.8340846,3.10651828 58.3038932,3.57710652 C59.0086063,4.28298887 59.2435106,5.22416534 59.2435106,6.75357711 L59.2435106,7.22416534 L55.0152324,7.10651828 L55.0152324,7.10651828 Z M57.2468237,5.69475358 C57.2468237,5.10651828 57.2468237,4.87122417 57.0119193,4.63593005 C56.777015,4.40063593 56.5421107,4.16534181 56.1897541,4.16534181 C55.4850411,4.16534181 55.0152324,4.75357711 55.0152324,5.69475358 L55.0152324,5.69475358 L57.2468237,5.69475358 L57.2468237,5.69475358 L57.2468237,5.69475358 Z" id="Shape"></path>
                        </g>
                    </g>
                </g>
            </g>
        </g>
    </g>
</svg>