<?xml version="1.0" encoding="UTF-8" standalone="no"?>
<svg width="26px" height="25px" viewBox="0 0 26 25" version="1.1" xmlns="http://www.w3.org/2000/svg" xmlns:xlink="http://www.w3.org/1999/xlink">
    <!-- Generator: Sketch 42 (36781) - http://www.bohemiancoding.com/sketch -->
    <title>Combined Shape</title>
    <desc>Created with Sketch.</desc>
    <defs></defs>
    <g id="Symbols" stroke="none" stroke-width="1" fill="none" fill-rule="evenodd">
        <g id="Quote-Summary---single-vehicle---alt" transform="translate(-570.000000, -1051.000000)" fill="#0073CF">
            <g id="Vehicle---Details---Desktop">
                <g id="Discounts" transform="translate(130.000000, 880.000000)">
                    <g id="Group-6" transform="translate(440.000000, 171.000000)">
                        <g id="Group-3">
                            <path d="M12.5284414,0 C19.4472732,0 25.0568828,5.596875 25.0568828,12.5 C25.0568828,19.403125 19.4472732,25 12.5284414,25 C5.60960964,25 0,19.403125 0,12.5 C0,5.596875 5.60960964,0 12.5284414,0 Z M10.9534373,17 C11.1550379,17 11.3566384,16.9118 11.5109888,16.7372 L17.811005,9.5372 C18.1181308,9.1844 18.1181308,8.6156 17.811005,8.2628 C17.5023042,7.9118 17.004603,7.9118 16.6959022,8.2628 L10.9534373,14.8274 L8.36098066,11.8628 C8.05227986,11.5118 7.55457858,11.5118 7.24587778,11.8628 C6.93875199,12.2156 6.93875199,12.7844 7.24587778,13.1372 L10.3958859,16.7372 C10.5502363,16.9118 10.7518368,17 10.9534373,17 Z" id="Combined-Shape"></path>
                        </g>
                    </g>
                </g>
            </g>
        </g>
    </g>
</svg>