<?xml version="1.0" encoding="UTF-8" standalone="no"?>
<svg width="15px" height="22px" viewBox="0 0 15 22" version="1.1" xmlns="http://www.w3.org/2000/svg" xmlns:xlink="http://www.w3.org/1999/xlink">
    <!-- Generator: Sketch 42 (36781) - http://www.bohemiancoding.com/sketch -->
    <title>icon_phone</title>
    <desc>Created with Sketch.</desc>
    <defs>
        <polygon id="path-1" points="6.49695526 21.9375 12.9938421 21.9375 12.9938421 0 6.49695526 0 6.8421052e-05 0 6.8421052e-05 21.9375 6.49695526 21.9375"></polygon>
    </defs>
    <g id="Symbols" stroke="none" stroke-width="1" fill="none" fill-rule="evenodd">
        <g id="Contact-Us---Sidebar1" transform="translate(-20.000000, -267.000000)">
            <g id="Group-4" transform="translate(0.000000, 204.000000)">
                <g id="icon_phone" transform="translate(21.000000, 63.000000)">
                    <g id="Group-3">
                        <mask id="mask-2" fill="white">
                            <use xlink:href="#path-1"></use>
                        </mask>
                        <g id="Clip-2"></g>
                        <path d="M12.0360158,0 L0.957963158,0 C0.429068421,0 6.8421052e-05,0.431208984 6.8421052e-05,0.962507813 L6.8421052e-05,20.9749922 C6.8421052e-05,21.506291 0.429068421,21.9375 0.957963158,21.9375 L12.0360158,21.9375 C12.5649105,21.9375 12.9939105,21.506291 12.9939105,20.9749922 L12.9939105,0.962507813 C12.9939105,0.431208984 12.5649105,0 12.0360158,0 M12.0360158,0.962507812 L12.0360158,0.962507812 L12.0360158,20.9749922 L0.957963158,20.9749922 L0.957963158,0.962507812 L12.0360158,0.962507812" id="Fill-1" fill="#FFFFFF" mask="url(#mask-2)"></path>
                    </g>
                    <path d="M0.520478947,16.1369508 L12.4736368,16.1369508" id="Stroke-4" stroke="#FFFFFF" stroke-width="1.4" stroke-linecap="round" stroke-linejoin="round"></path>
                    <path d="M0.743873684,3.55785117 L12.2502421,3.55785117" id="Stroke-6" stroke="#FFFFFF" stroke-width="1.4" stroke-linecap="round" stroke-linejoin="round"></path>
                    <path d="M7.21753158,18.7351049 C7.21753158,19.1135268 6.91100526,19.4206518 6.53332105,19.4206518 C6.15563684,19.4206518 5.84911053,19.1135268 5.84911053,18.7351049 C5.84911053,18.356683 6.15563684,18.049558 6.53332105,18.049558 C6.91100526,18.049558 7.21753158,18.356683 7.21753158,18.7351049" id="Fill-8" fill="#FFFFFF"></path>
                </g>
            </g>
        </g>
    </g>
</svg>